<?xml version="1.0" encoding="UTF-8" standalone="no"?><!DOCTYPE svg PUBLIC "-//W3C//DTD SVG 1.1//EN" "http://www.w3.org/Graphics/SVG/1.1/DTD/svg11.dtd"><svg width="100%" height="100%" viewBox="0 0 64 64" version="1.1" xmlns="http://www.w3.org/2000/svg" xmlns:xlink="http://www.w3.org/1999/xlink" xml:space="preserve" style="fill-rule:evenodd;clip-rule:evenodd;stroke-linejoin:round;stroke-miterlimit:1.41421;"><path d="M1.652,19.564l17,0l0,42.436l-17,0l0,-42.436Z" style="fill:#5f7a82;fill-rule:nonzero;"/><path d="M44.862,19.564l17.138,0l0,42.436l-17.138,0l0,-42.436Z" style="fill:#5f7a82;fill-rule:nonzero;"/><path d="M18.652,2l26.21,0l0,60l-26.21,0l0,-60Z" style="fill:#75cef9;fill-rule:nonzero;"/><path d="M33.912,48.566c1.17,-0.707 1.889,-1.976 1.894,-3.343c-0.029,-2.174 -1.826,-3.947 -4,-3.947c-2.175,0 -3.972,1.773 -4,3.947c0.005,1.367 0.724,2.636 1.893,3.343c-2.324,0.847 -3.883,3.065 -3.893,5.539l0,7.895l12,0l0,-7.895c-0.011,-2.474 -1.57,-4.692 -3.894,-5.539l0,0Z" style="fill:#f1d333;fill-rule:nonzero;"/><g><path d="M22.684,23.512l2.016,0l0,1.973l-2.016,0l0,-1.973Z" style="fill:#f6f9f9;fill-rule:nonzero;"/><path d="M22.684,27.459l2.016,0l0,1.974l-2.016,0l0,-1.974Z" style="fill:#f6f9f9;fill-rule:nonzero;"/><path d="M22.684,31.407l2.016,0l0,1.973l-2.016,0l0,-1.973Z" style="fill:#f6f9f9;fill-rule:nonzero;"/><path d="M22.684,35.354l2.016,0l0,1.974l-2.016,0l0,-1.974Z" style="fill:#f6f9f9;fill-rule:nonzero;"/><path d="M26.717,23.512l2.016,0l0,1.973l-2.016,0l0,-1.973Z" style="fill:#f6f9f9;fill-rule:nonzero;"/><path d="M26.717,27.459l2.016,0l0,1.974l-2.016,0l0,-1.974Z" style="fill:#f6f9f9;fill-rule:nonzero;"/><path d="M26.717,31.407l2.016,0l0,1.973l-2.016,0l0,-1.973Z" style="fill:#f6f9f9;fill-rule:nonzero;"/><path d="M26.717,35.354l2.016,0l0,1.974l-2.016,0l0,-1.974Z" style="fill:#f6f9f9;fill-rule:nonzero;"/><path d="M30.749,23.512l2.016,0l0,1.973l-2.016,0l0,-1.973Z" style="fill:#f6f9f9;fill-rule:nonzero;"/><path d="M30.749,27.459l2.016,0l0,1.974l-2.016,0l0,-1.974Z" style="fill:#f6f9f9;fill-rule:nonzero;"/><path d="M30.749,31.407l2.016,0l0,1.973l-2.016,0l0,-1.973Z" style="fill:#f6f9f9;fill-rule:nonzero;"/><path d="M30.749,35.354l2.016,0l0,1.974l-2.016,0l0,-1.974Z" style="fill:#f6f9f9;fill-rule:nonzero;"/><path d="M34.781,23.512l2.017,0l0,1.973l-2.017,0l0,-1.973Z" style="fill:#f6f9f9;fill-rule:nonzero;"/><path d="M26.717,19.564l2.016,0l0,1.974l-2.016,0l0,-1.974Z" style="fill:#f6f9f9;fill-rule:nonzero;"/><path d="M30.749,19.564l2.016,0l0,1.974l-2.016,0l0,-1.974Z" style="fill:#f6f9f9;fill-rule:nonzero;"/><path d="M34.781,19.564l2.017,0l0,1.974l-2.017,0l0,-1.974Z" style="fill:#f6f9f9;fill-rule:nonzero;"/><path d="M34.781,27.459l2.017,0l0,1.974l-2.017,0l0,-1.974Z" style="fill:#f6f9f9;fill-rule:nonzero;"/><path d="M34.781,31.407l2.017,0l0,1.973l-2.017,0l0,-1.973Z" style="fill:#f6f9f9;fill-rule:nonzero;"/><path d="M34.781,35.354l2.017,0l0,1.974l-2.017,0l0,-1.974Z" style="fill:#f6f9f9;fill-rule:nonzero;"/><path d="M38.814,23.512l2.016,0l0,1.973l-2.016,0l0,-1.973Z" style="fill:#f6f9f9;fill-rule:nonzero;"/><path d="M38.814,27.459l2.016,0l0,1.974l-2.016,0l0,-1.974Z" style="fill:#f6f9f9;fill-rule:nonzero;"/><path d="M38.814,31.407l2.016,0l0,1.973l-2.016,0l0,-1.973Z" style="fill:#f6f9f9;fill-rule:nonzero;"/><path d="M38.814,35.354l2.016,0l0,1.974l-2.016,0l0,-1.974Z" style="fill:#f6f9f9;fill-rule:nonzero;"/></g><path d="M13.47,52.485c0.73,-0.551 1.162,-1.413 1.166,-2.328c-0.022,-1.63 -1.369,-2.96 -3,-2.96c-1.631,0 -2.979,1.33 -3,2.96c0.003,0.915 0.435,1.777 1.165,2.328c-1.895,0.726 -3.156,2.551 -3.165,4.581l0,4.934l10,0l0,-4.934c-0.01,-2.03 -1.271,-3.855 -3.166,-4.581Z" style="fill:#f1d333;fill-rule:nonzero;"/><path d="M22.543,49.524c0.73,-0.551 1.162,-1.413 1.165,-2.327c-0.021,-1.631 -1.369,-2.961 -3,-2.961c-1.631,0 -2.978,1.33 -3,2.961c0.004,0.914 0.436,1.776 1.166,2.327c-1.895,0.726 -3.156,2.552 -3.166,4.581l0,7.895l10,0l0,-7.895c-0.009,-2.029 -1.27,-3.855 -3.165,-4.581Z" style="fill:#f1d333;fill-rule:nonzero;"/><path d="M53.794,52.485c0.73,-0.551 1.162,-1.413 1.165,-2.328c-0.021,-1.63 -1.369,-2.96 -3,-2.96c-1.63,0 -2.978,1.33 -3,2.96c0.004,0.915 0.436,1.777 1.166,2.328c-1.895,0.726 -3.156,2.551 -3.166,4.581l0,4.934l10,0l0,-4.934c-0.009,-2.03 -1.27,-3.855 -3.165,-4.581l0,0Z" style="fill:#f1d333;fill-rule:nonzero;"/><path d="M44.721,49.524c0.73,-0.551 1.162,-1.413 1.166,-2.327c-0.022,-1.631 -1.369,-2.961 -3,-2.961c-1.631,0 -2.979,1.33 -3,2.961c0.004,0.914 0.435,1.776 1.165,2.327c-1.895,0.726 -3.156,2.552 -3.165,4.581l0,7.895l10,0l0,-7.895c-0.01,-2.029 -1.271,-3.855 -3.166,-4.581l0,0Z" style="fill:#f1d333;fill-rule:nonzero;"/><path d="M49.903,26.472l2.016,0l0,15.79l-2.016,0l0,-15.79Z" style="fill:#f6f9f9;fill-rule:nonzero;"/><path d="M55.951,26.472l2.017,0l0,15.79l-2.017,0l0,-15.79Z" style="fill:#f6f9f9;fill-rule:nonzero;"/><path d="M5.546,26.472l2.017,0l0,15.79l-2.017,0l0,-15.79Z" style="fill:#f6f9f9;fill-rule:nonzero;"/><path d="M11.595,26.472l2.016,0l0,15.79l-2.016,0l0,-15.79Z" style="fill:#f6f9f9;fill-rule:nonzero;"/><path d="M23.692,4.761l16.13,0l0,9.869l-16.13,0l0,-9.869Z" style="fill:#f6f9f9;fill-rule:nonzero;"/></svg>