<?xml version="1.0" encoding="UTF-8" standalone="no"?><!DOCTYPE svg PUBLIC "-//W3C//DTD SVG 1.1//EN" "http://www.w3.org/Graphics/SVG/1.1/DTD/svg11.dtd"><svg width="100%" height="100%" viewBox="0 0 2481 1000" version="1.1" xmlns="http://www.w3.org/2000/svg" xmlns:xlink="http://www.w3.org/1999/xlink" xml:space="preserve" style="fill-rule:evenodd;clip-rule:evenodd;stroke-linejoin:round;stroke-miterlimit:1.41421;"><path id="Layer1" d="M2384.7,217.711l-2264.32,0l0,526.414l1539.42,0l0,39.381l-1586.91,0l0,-604.997l2311.81,0l0,39.202Zm-1978.79,322.706c10.031,0 19.005,1.944 26.921,5.833c7.916,3.889 14.14,9.496 18.672,16.823c4.532,7.326 6.799,15.892 6.799,25.699c0,9.806 -2.267,18.372 -6.799,25.699c-4.532,7.326 -10.756,12.934 -18.672,16.822c-7.916,3.889 -16.89,5.833 -26.921,5.833c-10.031,0 -19.035,-1.944 -27.011,-5.833c-7.977,-3.888 -14.231,-9.496 -18.763,-16.822c-4.532,-7.327 -6.798,-15.893 -6.798,-25.699c0,-9.807 2.266,-18.373 6.798,-25.699c4.532,-7.327 10.786,-12.934 18.763,-16.823c7.976,-3.889 16.98,-5.833 27.011,-5.833Zm1580.43,45.818c0,2.367 -0.3,4.96 -0.9,7.778l-70.16,0c0.36,7.101 2.3,12.201 5.8,15.301c3.51,3.099 7.98,4.649 13.42,4.649c4.59,0 8.4,-1.07 11.42,-3.212c3.02,-2.142 5.01,-4.903 5.98,-8.285l32.81,0c-1.33,6.651 -4.23,12.596 -8.7,17.838c-4.47,5.241 -10.15,9.355 -17.04,12.342c-6.89,2.987 -14.56,4.48 -23.02,4.48c-9.91,0 -18.7,-1.944 -26.38,-5.833c-7.67,-3.888 -13.69,-9.496 -18.04,-16.822c-4.35,-7.327 -6.52,-15.893 -6.52,-25.699c0,-9.919 2.14,-18.514 6.43,-25.784c4.29,-7.27 10.31,-12.849 18.04,-16.738c7.73,-3.889 16.56,-5.833 26.47,-5.833c10.03,0 18.85,1.916 26.46,5.748c7.62,3.833 13.51,9.215 17.68,16.147c4.17,6.932 6.25,14.906 6.25,23.923Zm-404.62,-13.187l-29.01,0c-0.84,-3.832 -2.75,-6.848 -5.71,-9.046c-2.96,-2.197 -6.68,-3.296 -11.15,-3.296c-3.5,0 -6.16,0.704 -7.98,2.113c-1.81,1.409 -2.71,3.41 -2.71,6.002c0,2.931 1.66,5.129 4.98,6.594c3.33,1.465 8.55,2.93 15.68,4.396c7.74,1.69 14.08,3.409 19.04,5.156c4.95,1.748 9.24,4.594 12.87,8.539c3.62,3.945 5.44,9.242 5.44,15.892c0,5.411 -1.57,10.201 -4.72,14.372c-3.14,4.17 -7.67,7.439 -13.59,9.806c-5.92,2.367 -12.93,3.55 -21.03,3.55c-13.66,0 -24.6,-2.818 -32.81,-8.453c-8.22,-5.636 -13.24,-13.695 -15.05,-24.178l29.91,0c0.49,4.058 2.33,7.158 5.53,9.299c3.2,2.142 7.34,3.213 12.42,3.213c3.5,0 6.16,-0.761 7.98,-2.283c1.81,-1.522 2.71,-3.522 2.71,-6.002c0,-3.269 -1.66,-5.607 -4.98,-7.016c-3.32,-1.409 -8.73,-2.903 -16.23,-4.481c-7.49,-1.465 -13.65,-3.043 -18.49,-4.734c-4.83,-1.691 -9,-4.424 -12.51,-8.2c-3.5,-3.776 -5.25,-8.933 -5.25,-15.47c0,-8.454 3.44,-15.301 10.33,-20.542c6.89,-5.241 16.62,-7.862 29.19,-7.862c12.81,0 23.05,2.987 30.73,8.961c7.67,5.974 12.47,13.864 14.41,23.67Zm172.58,62.895l-30.82,0l0,-17.077c-2.66,5.636 -6.77,10.088 -12.33,13.357c-5.55,3.269 -12.2,4.903 -19.94,4.903c-8.34,0 -15.8,-1.944 -22.39,-5.833c-6.58,-3.888 -11.78,-9.496 -15.59,-16.822c-3.8,-7.327 -5.71,-15.893 -5.71,-25.699c0,-9.919 1.91,-18.514 5.71,-25.784c3.81,-7.27 9.01,-12.849 15.59,-16.738c6.59,-3.889 14.05,-5.833 22.39,-5.833c7.74,0 14.39,1.634 19.94,4.903c5.56,3.269 9.67,7.721 12.33,13.357l0,-17.077l30.82,0l0,94.343Zm-403,0l-30.81,0l0,-17.077c-2.66,5.636 -6.77,10.088 -12.33,13.357c-5.56,3.269 -12.21,4.903 -19.94,4.903c-8.34,0 -15.81,-1.944 -22.39,-5.833c-6.59,-3.888 -11.78,-9.496 -15.59,-16.822c-3.81,-7.327 -5.71,-15.893 -5.71,-25.699c0,-9.919 1.9,-18.514 5.71,-25.784c3.81,-7.27 9,-12.849 15.59,-16.738c6.58,-3.889 14.05,-5.833 22.39,-5.833c7.73,0 14.38,1.634 19.94,4.903c5.56,3.269 9.67,7.721 12.33,13.357l0,-17.077l30.81,0l0,94.343Zm-702.836,-57.823l-32.812,0c-0.967,-4.058 -2.961,-7.214 -5.983,-9.468c-3.021,-2.254 -6.828,-3.381 -11.421,-3.381c-5.438,0 -9.91,2 -13.415,6.002c-3.505,4.001 -5.257,9.834 -5.257,17.499c0,7.664 1.752,13.497 5.257,17.499c3.505,4.001 7.977,6.002 13.415,6.002c4.593,0 8.4,-1.128 11.421,-3.382c3.022,-2.254 5.016,-5.41 5.983,-9.468l32.812,0c-2.296,11.722 -7.856,20.937 -16.678,27.643c-8.823,6.707 -19.76,10.06 -32.813,10.06c-9.91,0 -18.702,-1.944 -26.377,-5.833c-7.674,-3.888 -13.687,-9.496 -18.037,-16.822c-4.351,-7.327 -6.527,-15.893 -6.527,-25.699c0,-9.919 2.146,-18.514 6.436,-25.784c4.29,-7.27 10.303,-12.849 18.038,-16.738c7.735,-3.889 16.557,-5.833 26.467,-5.833c13.053,0 23.99,3.353 32.813,10.06c8.822,6.706 14.382,15.921 16.678,27.643Zm116.747,57.823l-31.181,0l0,-17.077c-2.9,5.523 -7.221,9.919 -12.961,13.188c-5.741,3.269 -12.418,4.903 -20.032,4.903c-11.603,0 -20.818,-3.607 -27.646,-10.82c-6.829,-7.214 -10.243,-17.133 -10.243,-29.757l0,-54.78l30.818,0l0,51.229c0,6.425 1.783,11.413 5.348,14.963c3.566,3.551 8.37,5.326 14.412,5.326c6.285,0 11.24,-1.86 14.866,-5.579c3.626,-3.72 5.438,-9.018 5.438,-15.893l0,-50.046l31.181,0l0,94.343Zm1076.29,0l-38.43,0l-35.9,-94.343l32.99,0l22.3,66.108l21.94,-66.108l32.99,0l-35.89,94.343Zm-1561.77,0l-30.999,0l0,-125.114l30.999,0l0,68.644l30.275,-37.873l36.438,0l-40.789,47.172l41.695,47.171l-37.344,0l-30.275,-40.07l0,40.07Zm1150.25,0l-13.96,0c-11.84,0 -21.06,-2.734 -27.64,-8.2c-6.59,-5.467 -9.88,-14.512 -9.88,-27.136l0,-34.66l-13.6,0l0,-24.347l13.6,0l0,-23.162l31,0l0,23.162l20.3,0l0,24.347l-20.3,0l0,35.167c0,3.719 0.81,6.312 2.44,7.777c1.64,1.465 4.39,2.198 8.25,2.198l9.79,0l0,24.854Zm-612.377,0l-31,0l0,-125.114l31,0l0,125.114Zm384.327,0l-31,0l0,-94.343l31,0l0,17.753c3.86,-5.748 8.85,-10.313 14.95,-13.695c6.11,-3.381 12.72,-5.072 19.85,-5.072l0,30.94l-8.88,0c-8.22,0 -14.59,1.635 -19.13,4.903c-4.53,3.269 -6.79,8.792 -6.79,16.569l0,42.945Zm276.45,0l-31,0l0,-94.343l31,0l0,94.343Zm153.01,0l-31,0l0,-125.114l31,0l0,125.114Zm-519.2,0l-59.64,0l0,-119.534l58.19,0c13.05,0 23.14,2.648 30.27,7.946c7.13,5.298 10.7,12.85 10.7,22.656c0,7.213 -2.06,13.216 -6.16,18.006c-4.11,4.79 -9.49,7.918 -16.14,9.383c7.74,1.691 13.87,5.185 18.4,10.483c4.54,5.297 6.8,11.44 6.8,18.429c0,10.257 -3.66,18.26 -10.97,24.008c-7.31,5.748 -17.79,8.623 -31.45,8.623Zm-144.665,0l-38.432,0l-35.895,-94.343l32.994,0l22.298,66.108l21.935,-66.108l32.995,0l-35.895,94.343Zm-462.094,0l-31,0l0,-94.343l31,0l0,17.753c3.867,-5.748 8.852,-10.313 14.956,-13.695c6.103,-3.381 12.72,-5.072 19.85,-5.072l0,30.94l-8.883,0c-8.218,0 -14.593,1.635 -19.125,4.903c-4.532,3.269 -6.798,8.792 -6.798,16.569l0,42.945Zm600.049,-50.384l-21.93,0l0,26.883l22.11,0c11.48,0 17.23,-4.396 17.23,-13.188c0,-4.283 -1.52,-7.636 -4.54,-10.06c-3.02,-2.423 -7.31,-3.635 -12.87,-3.635Zm-699.575,-20.119c-5.922,0 -10.907,2 -14.956,6.002c-4.048,4.001 -6.073,9.778 -6.073,17.33c0,7.551 2.025,13.3 6.073,17.245c4.049,3.945 9.034,5.917 14.956,5.917c5.922,0 10.877,-1.972 14.866,-5.917c3.988,-3.945 5.982,-9.694 5.982,-17.245c0,-7.552 -1.994,-13.329 -5.982,-17.33c-3.989,-4.002 -8.944,-6.002 -14.866,-6.002Zm1295.28,0.338c-6.64,0 -11.99,2.029 -16.04,6.086c-4.05,4.058 -6.07,9.694 -6.07,16.908c0,7.213 2.02,12.849 6.07,16.907c4.05,4.058 9.4,6.086 16.04,6.086c6.53,0 11.88,-2.085 16.05,-6.255c4.17,-4.171 6.25,-9.75 6.25,-16.738c0,-7.101 -2.08,-12.709 -6.25,-16.823c-4.17,-4.114 -9.52,-6.171 -16.05,-6.171Zm-402.99,0c-6.65,0 -12,2.029 -16.05,6.086c-4.04,4.058 -6.07,9.694 -6.07,16.908c0,7.213 2.03,12.849 6.07,16.907c4.05,4.058 9.4,6.086 16.05,6.086c6.52,0 11.87,-2.085 16.04,-6.255c4.17,-4.171 6.26,-9.75 6.26,-16.738c0,-7.101 -2.09,-12.709 -6.26,-16.823c-4.17,-4.114 -9.52,-6.171 -16.04,-6.171Zm656.79,16.062c0.12,-6.2 -1.66,-10.849 -5.35,-13.949c-3.68,-3.1 -8.24,-4.649 -13.68,-4.649c-5.68,0 -10.4,1.578 -14.14,4.734c-3.75,3.156 -5.87,7.777 -6.35,13.864l39.52,0Zm-851.49,-42.268l-19.94,0l0,25.699l20.3,0c10.76,0 16.14,-4.284 16.14,-12.85c0,-8.566 -5.5,-12.849 -16.5,-12.849Zm-252.35,-28.743c2.417,6.312 3.626,12.962 3.626,19.951c0,7.777 -2.145,14.005 -6.436,18.682c-4.29,4.678 -10.605,7.017 -18.944,7.017l0,-10.821c6.405,0 9.608,-3.776 9.608,-11.328l0,-2.705l-11.602,0l0,-20.796l23.748,0Zm-224.611,9.806l-28.099,14.203l-28.1,-14.203l0,-19.105l28.1,14.541l28.099,-14.541l0,19.105Zm113.665,-3.212l-43.69,17.415l0,-19.613l43.69,-19.612l0,21.81Zm704.296,-2.367c0,-4.396 1.69,-8.031 5.07,-10.905c3.38,-2.874 7.86,-4.311 13.42,-4.311c5.56,0 10.03,1.437 13.41,4.311c3.39,2.874 5.08,6.509 5.08,10.905c0,4.283 -1.69,7.862 -5.08,10.736c-3.38,2.874 -7.85,4.311 -13.41,4.311c-5.56,0 -10.04,-1.437 -13.42,-4.311c-3.38,-2.874 -5.07,-6.453 -5.07,-10.736Zm299.84,-65.093l-3.63,0l0,-25.699c-2.29,9.243 -6.98,16.175 -14.05,20.796c-7.07,4.621 -15.19,6.932 -24.38,6.932c-11.48,0 -20.91,-3.325 -28.28,-9.975c-7.37,-6.65 -11.06,-16.682 -11.06,-30.095l0,-53.258l3.45,0l0,53.596c0,11.948 3.2,21.05 9.61,27.305c6.4,6.256 15.16,9.384 26.28,9.384c11.6,0 20.91,-3.522 27.92,-10.567c7.01,-7.045 10.51,-17.443 10.51,-31.194l0,-48.524l3.63,0l0,91.299Zm160.98,-1.86c11,0 20.24,-2.592 27.74,-7.777c7.49,-5.185 12.02,-12.286 13.59,-21.303l3.63,0c-1.69,9.581 -6.5,17.33 -14.41,23.247c-7.92,5.918 -18.1,8.877 -30.55,8.877c-9.06,0 -17.16,-1.86 -24.29,-5.58c-7.13,-3.719 -12.72,-9.13 -16.77,-16.231c-4.05,-7.101 -6.07,-15.441 -6.07,-25.022c0,-9.581 2.02,-17.922 6.07,-25.023c4.05,-7.101 9.64,-12.511 16.77,-16.231c7.13,-3.719 15.23,-5.579 24.29,-5.579c9.55,0 17.71,1.888 24.47,5.664c6.77,3.776 11.88,8.651 15.32,14.624c3.45,5.974 5.17,12.286 5.17,18.937c0,3.381 -0.24,6.424 -0.73,9.129l-87.74,0c0.12,9.356 2.21,17.189 6.26,23.501c4.05,6.312 9.33,11.018 15.86,14.118c6.52,3.1 13.66,4.649 21.39,4.649Zm-1040.76,-90.622c9.064,0 17.222,1.888 24.474,5.664c7.251,3.776 12.931,9.186 17.04,16.231c4.11,7.044 6.164,15.357 6.164,24.938c0,9.581 -2.054,17.893 -6.164,24.938c-4.109,7.045 -9.789,12.455 -17.04,16.231c-7.252,3.776 -15.41,5.664 -24.474,5.664c-9.064,0 -17.222,-1.888 -24.473,-5.664c-7.252,-3.776 -12.962,-9.186 -17.132,-16.231c-4.169,-7.045 -6.254,-15.357 -6.254,-24.938c0,-9.581 2.085,-17.894 6.254,-24.938c4.17,-7.045 9.88,-12.455 17.132,-16.231c7.251,-3.776 15.409,-5.664 24.473,-5.664Zm276.095,92.482l-3.44,0l0,-29.418c-2.66,9.13 -7.89,16.512 -15.68,22.148c-7.8,5.636 -17.32,8.454 -28.56,8.454c-9.3,0 -17.58,-1.888 -24.83,-5.664c-7.25,-3.776 -12.87,-9.186 -16.86,-16.231c-3.99,-7.045 -5.98,-15.357 -5.98,-24.938c0,-9.581 1.99,-17.894 5.98,-24.938c3.99,-7.045 9.61,-12.455 16.86,-16.231c7.25,-3.776 15.53,-5.664 24.83,-5.664c11.24,0 20.76,2.818 28.56,8.453c7.79,5.636 13.02,13.019 15.68,22.149l0,-29.419l3.44,0l0,91.299Zm175.67,-44.128c0.12,9.356 2.2,17.189 6.25,23.501c4.05,6.312 9.34,11.018 15.86,14.118c6.53,3.1 13.66,4.649 21.4,4.649c10.99,0 20.24,-2.592 27.73,-7.777c7.49,-5.185 12.03,-12.286 13.6,-21.303l3.62,0c-1.69,9.581 -6.49,17.33 -14.41,23.247c-7.92,5.918 -18.1,8.877 -30.54,8.877c-9.07,0 -17.17,-1.86 -24.3,-5.58c-7.13,-3.719 -12.72,-9.13 -16.77,-16.231c-4.04,-7.101 -6.07,-15.441 -6.07,-25.022c0,-9.581 2.03,-17.922 6.07,-25.023c4.05,-7.101 9.64,-12.511 16.77,-16.231c7.13,-3.719 15.23,-5.579 24.3,-5.579c9.54,0 17.7,1.888 24.47,5.664c6.77,3.776 11.87,8.651 15.32,14.624c3.44,5.974 5.16,12.286 5.16,18.937c0,3.381 -0.24,6.424 -0.72,9.129l-87.74,0Zm-556.547,-20.457l-3.626,0c-0.846,-6.989 -3.867,-12.878 -9.064,-17.668c-5.197,-4.791 -12.388,-7.186 -21.573,-7.186c-8.097,0 -14.473,1.888 -19.126,5.664c-4.652,3.776 -6.979,8.764 -6.979,14.963c0,4.621 1.299,8.256 3.898,10.905c2.598,2.649 5.771,4.621 9.517,5.918c3.747,1.296 8.883,2.677 15.409,4.142c7.131,1.578 12.811,3.128 17.041,4.649c4.23,1.522 7.825,3.945 10.786,7.27c2.961,3.326 4.442,7.806 4.442,13.442c0,6.988 -2.629,12.68 -7.886,17.076c-5.257,4.396 -12.116,6.594 -20.576,6.594c-10.393,0 -18.944,-2.508 -25.652,-7.524c-6.707,-5.016 -10.605,-11.807 -11.692,-20.373l3.625,0c0.725,7.101 4.019,13.018 9.88,17.752c5.862,4.734 13.869,7.101 24.021,7.101c7.734,0 13.777,-1.916 18.128,-5.748c4.351,-3.832 6.526,-8.792 6.526,-14.878c0,-4.847 -1.329,-8.708 -3.988,-11.582c-2.659,-2.874 -5.982,-5.016 -9.971,-6.425c-3.988,-1.408 -9.245,-2.789 -15.771,-4.142c-6.889,-1.465 -12.418,-2.959 -16.588,-4.48c-4.17,-1.522 -7.674,-3.833 -10.514,-6.932c-2.841,-3.1 -4.261,-7.355 -4.261,-12.765c0,-7.214 2.72,-12.962 8.158,-17.245c5.439,-4.284 12.63,-6.425 21.573,-6.425c9.669,0 17.524,2.479 23.567,7.439c6.043,4.959 9.608,11.779 10.696,20.458Zm727.317,64.585l-3.45,0l0,-125.113l3.45,0l0,63.233c2.66,-9.13 7.88,-16.513 15.68,-22.149c7.79,-5.635 17.31,-8.453 28.55,-8.453c9.31,0 17.58,1.888 24.84,5.664c7.25,3.776 12.87,9.186 16.86,16.231c3.98,7.044 5.98,15.357 5.98,24.938c0,9.581 -2,17.893 -5.98,24.938c-3.99,7.045 -9.61,12.455 -16.86,16.231c-7.26,3.776 -15.53,5.664 -24.84,5.664c-11.24,0 -20.76,-2.818 -28.55,-8.454c-7.8,-5.636 -13.02,-13.018 -15.68,-22.148l0,29.418Zm348.61,-64.585l-3.63,0c-0.84,-6.989 -3.87,-12.878 -9.06,-17.668c-5.2,-4.791 -12.39,-7.186 -21.58,-7.186c-8.09,0 -14.47,1.888 -19.12,5.664c-4.66,3.776 -6.98,8.764 -6.98,14.963c0,4.621 1.3,8.256 3.9,10.905c2.6,2.649 5.77,4.621 9.51,5.918c3.75,1.296 8.89,2.677 15.41,4.142c7.13,1.578 12.81,3.128 17.04,4.649c4.23,1.522 7.83,3.945 10.79,7.27c2.96,3.326 4.44,7.806 4.44,13.442c0,6.988 -2.63,12.68 -7.88,17.076c-5.26,4.396 -12.12,6.594 -20.58,6.594c-10.39,0 -18.94,-2.508 -25.65,-7.524c-6.71,-5.016 -10.61,-11.807 -11.69,-20.373l3.62,0c0.73,7.101 4.02,13.018 9.88,17.752c5.86,4.734 13.87,7.101 24.02,7.101c7.74,0 13.78,-1.916 18.13,-5.748c4.35,-3.832 6.53,-8.792 6.53,-14.878c0,-4.847 -1.33,-8.708 -3.99,-11.582c-2.66,-2.874 -5.98,-5.016 -9.97,-6.425c-3.99,-1.408 -9.25,-2.789 -15.77,-4.142c-6.89,-1.465 -12.42,-2.959 -16.59,-4.48c-4.17,-1.522 -7.68,-3.833 -10.52,-6.932c-2.84,-3.1 -4.26,-7.355 -4.26,-12.765c0,-7.214 2.72,-12.962 8.16,-17.245c5.44,-4.284 12.63,-6.425 21.57,-6.425c9.67,0 17.53,2.479 23.57,7.439c6.04,4.959 9.61,11.779 10.7,20.458Zm-1251.23,20.457c0.12,9.356 2.205,17.189 6.254,23.501c4.049,6.312 9.336,11.018 15.862,14.118c6.527,3.1 13.657,4.649 21.392,4.649c10.998,0 20.243,-2.592 27.736,-7.777c7.494,-5.185 12.026,-12.286 13.597,-21.303l3.625,0c-1.692,9.581 -6.496,17.33 -14.412,23.247c-7.916,5.918 -18.098,8.877 -30.546,8.877c-9.064,0 -17.162,-1.86 -24.292,-5.58c-7.131,-3.719 -12.72,-9.13 -16.769,-16.231c-4.049,-7.101 -6.073,-15.441 -6.073,-25.022c0,-9.581 2.024,-17.922 6.073,-25.023c4.049,-7.101 9.638,-12.511 16.769,-16.231c7.13,-3.719 15.228,-5.579 24.292,-5.579c9.548,0 17.705,1.888 24.473,5.664c6.768,3.776 11.874,8.651 15.319,14.624c3.444,5.974 5.166,12.286 5.166,18.937c0,3.381 -0.241,6.424 -0.725,9.129l-87.741,0Zm-130.707,-48.354c9.065,0 17.222,1.888 24.474,5.664c7.251,3.776 12.931,9.186 17.041,16.231c4.109,7.044 6.163,15.357 6.163,24.938c0,9.581 -2.054,17.893 -6.163,24.938c-4.11,7.045 -9.79,12.455 -17.041,16.231c-7.252,3.776 -15.409,5.664 -24.474,5.664c-9.064,0 -17.222,-1.888 -24.473,-5.664c-7.251,-3.776 -12.962,-9.186 -17.131,-16.231c-4.17,-7.045 -6.255,-15.357 -6.255,-24.938c0,-9.581 2.085,-17.894 6.255,-24.938c4.169,-7.045 9.88,-12.455 17.131,-16.231c7.251,-3.776 15.409,-5.664 24.473,-5.664Zm1667.64,48.354c0.12,9.356 2.21,17.189 6.25,23.501c4.05,6.312 9.34,11.018 15.87,14.118c6.52,3.1 13.65,4.649 21.39,4.649c11,0 20.24,-2.592 27.74,-7.777c7.49,-5.185 12.02,-12.286 13.59,-21.303l3.63,0c-1.69,9.581 -6.5,17.33 -14.41,23.247c-7.92,5.918 -18.1,8.877 -30.55,8.877c-9.06,0 -17.16,-1.86 -24.29,-5.58c-7.13,-3.719 -12.72,-9.13 -16.77,-16.231c-4.05,-7.101 -6.08,-15.441 -6.08,-25.022c0,-9.581 2.03,-17.922 6.08,-25.023c4.05,-7.101 9.64,-12.511 16.77,-16.231c7.13,-3.719 15.23,-5.579 24.29,-5.579c9.55,0 17.71,1.888 24.47,5.664c6.77,3.776 11.88,8.651 15.32,14.624c3.45,5.974 5.17,12.286 5.17,18.937c0,3.381 -0.24,6.424 -0.73,9.129l-87.74,0Zm-473.88,-45.48l-1.63,0c-10.27,0 -19,2.79 -26.19,8.369c-7.19,5.579 -10.79,14.568 -10.79,26.967l0,54.272l-3.63,0l0,-91.299l3.63,0l0,22.149c3.87,-16.118 16.74,-24.178 38.61,-24.178l0,3.72Zm332.66,89.608l-3.62,0l0,-91.299l3.62,0l0,25.699c2.3,-9.242 6.98,-16.174 14.05,-20.796c7.07,-4.621 15.2,-6.932 24.38,-6.932c11.48,0 20.91,3.325 28.28,9.976c7.38,6.65 11.06,16.681 11.06,30.095l0,53.257l-3.44,0l0,-53.596c0,-11.947 -3.21,-21.049 -9.61,-27.305c-6.41,-6.255 -15.17,-9.383 -26.29,-9.383c-11.6,0 -20.9,3.522 -27.91,10.567c-7.02,7.044 -10.52,17.442 -10.52,31.194l0,48.523Zm-1444.66,0l-3.626,0l0,-87.748l-15.953,0l0,-3.551l15.953,0l0,-6.424c0,-9.243 2.417,-16.119 7.251,-20.627c4.835,-4.509 12.993,-6.763 24.474,-6.763l0,3.381c-10.515,0 -17.826,1.888 -21.936,5.664c-4.109,3.776 -6.163,9.891 -6.163,18.345l0,6.424l28.099,0l0,3.551l-28.099,0l0,87.748Zm254.886,0l-3.626,0l0,-91.299l3.626,0l0,91.299Zm1301.08,0l-3.63,0l0,-91.299l3.63,0l0,91.299Zm-881.95,0l-3.63,0l0,-91.299l3.63,0l0,25.699c2.3,-9.242 6.98,-16.174 14.05,-20.796c7.07,-4.621 15.2,-6.932 24.38,-6.932c11.48,0 20.91,3.325 28.28,9.976c7.37,6.65 11.06,16.681 11.06,30.095l0,53.257l-3.44,0l0,-53.596c0,-11.947 -3.21,-21.049 -9.61,-27.305c-6.41,-6.255 -15.17,-9.383 -26.29,-9.383c-11.6,0 -20.91,3.522 -27.92,10.567c-7,7.044 -10.51,17.442 -10.51,31.194l0,48.523Zm-856.751,0l-3.626,0l0,-91.299l3.626,0l0,22.149c3.867,-16.118 16.739,-24.178 38.614,-24.178l0,3.72l-1.632,0c-10.273,0 -19.005,2.79 -26.196,8.369c-7.191,5.579 -10.786,14.568 -10.786,26.967l0,54.272Zm822.311,0l-3.63,0l0,-125.113l3.63,0l0,125.113Zm-232.955,0l-3.626,0l0,-91.299l3.626,0l0,25.699c2.296,-9.242 6.98,-16.174 14.05,-20.796c7.07,-4.621 15.197,-6.932 24.382,-6.932c11.482,0 20.913,3.325 28.283,9.976c7.37,6.65 11.06,16.681 11.06,30.095l0,53.257l-3.45,0l0,-53.596c0,-11.947 -3.2,-21.049 -9.61,-27.305c-6.4,-6.255 -15.164,-9.383 -26.283,-9.383c-11.602,0 -20.908,3.522 -27.917,10.567c-7.01,7.044 -10.515,17.442 -10.515,31.194l0,48.523Zm-685.074,0l-3.626,0l0,-119.027l32.269,0c14.019,0 24.322,2.875 30.909,8.623c6.586,5.749 9.88,13.808 9.88,24.177c0,10.934 -3.445,19.106 -10.334,24.516c-6.888,5.41 -17.04,8.115 -30.455,8.115l-28.643,0l0,53.596Zm196.693,-89.439c-7.855,0 -15.137,1.606 -21.844,4.819c-6.708,3.212 -12.116,8.115 -16.225,14.709c-4.109,6.594 -6.164,14.681 -6.164,24.262c0,9.581 2.055,17.668 6.164,24.262c4.109,6.593 9.517,11.497 16.225,14.709c6.707,3.212 13.989,4.818 21.844,4.818c7.856,0 15.107,-1.606 21.755,-4.818c6.647,-3.212 12.025,-8.087 16.134,-14.625c4.109,-6.537 6.164,-14.653 6.164,-24.346c0,-9.694 -2.055,-17.809 -6.164,-24.347c-4.109,-6.537 -9.487,-11.412 -16.134,-14.624c-6.648,-3.213 -13.899,-4.819 -21.755,-4.819Zm1077.56,0c-8.46,0 -16.04,1.832 -22.75,5.495c-6.71,3.663 -11.97,8.792 -15.77,15.385c-3.81,6.594 -5.71,14.231 -5.71,22.91c0,8.679 1.9,16.315 5.71,22.909c3.8,6.594 9.06,11.722 15.77,15.386c6.71,3.663 14.29,5.494 22.75,5.494c8.94,0 16.71,-1.747 23.3,-5.241c6.58,-3.494 11.69,-8.538 15.31,-15.132c3.63,-6.594 5.44,-14.399 5.44,-23.416c0,-9.017 -1.81,-16.823 -5.44,-23.417c-3.62,-6.594 -8.73,-11.638 -15.31,-15.132c-6.59,-3.494 -14.36,-5.241 -23.3,-5.241Zm-438.35,0c-8.94,0 -16.7,1.747 -23.29,5.241c-6.59,3.494 -11.69,8.538 -15.32,15.132c-3.62,6.594 -5.44,14.4 -5.44,23.417c0,9.017 1.82,16.822 5.44,23.416c3.63,6.594 8.73,11.638 15.32,15.132c6.59,3.494 14.35,5.241 23.29,5.241c8.46,0 16.05,-1.831 22.76,-5.494c6.7,-3.664 11.96,-8.792 15.77,-15.386c3.8,-6.594 5.71,-14.23 5.71,-22.909c0,-8.679 -1.91,-16.316 -5.71,-22.91c-3.81,-6.593 -9.07,-11.722 -15.77,-15.385c-6.71,-3.663 -14.3,-5.495 -22.76,-5.495Zm-228.415,0c-7.855,0 -15.137,1.606 -21.845,4.819c-6.707,3.212 -12.115,8.115 -16.225,14.709c-4.109,6.594 -6.163,14.681 -6.163,24.262c0,9.581 2.054,17.668 6.163,24.262c4.11,6.593 9.518,11.497 16.225,14.709c6.708,3.212 13.99,4.818 21.845,4.818c7.856,0 15.107,-1.606 21.754,-4.818c6.648,-3.212 12.026,-8.087 16.135,-14.625c4.109,-6.537 6.163,-14.653 6.163,-24.346c0,-9.694 -2.054,-17.809 -6.163,-24.347c-4.109,-6.537 -9.487,-11.412 -16.135,-14.624c-6.647,-3.213 -13.898,-4.819 -21.754,-4.819Zm495.275,0c-7.74,0 -14.87,1.55 -21.4,4.65c-6.52,3.099 -11.81,7.805 -15.86,14.117c-4.05,6.312 -6.13,14.146 -6.25,23.501l85.2,0c0.6,-9.355 -1,-17.189 -4.8,-23.501c-3.81,-6.312 -9.01,-11.018 -15.59,-14.117c-6.59,-3.1 -13.69,-4.65 -21.3,-4.65Zm-731.851,0c-7.735,0 -14.865,1.55 -21.392,4.65c-6.526,3.099 -11.813,7.805 -15.862,14.117c-4.049,6.312 -6.134,14.146 -6.254,23.501l85.203,0c0.605,-9.355 -0.997,-17.189 -4.804,-23.501c-3.807,-6.312 -9.003,-11.018 -15.59,-14.117c-6.587,-3.1 -13.687,-4.65 -21.301,-4.65Zm1536.93,0c-7.74,0 -14.87,1.55 -21.39,4.65c-6.53,3.099 -11.82,7.805 -15.87,14.117c-4.04,6.312 -6.13,14.146 -6.25,23.501l85.21,0c0.6,-9.355 -1,-17.189 -4.81,-23.501c-3.81,-6.312 -9,-11.018 -15.59,-14.117c-6.59,-3.1 -13.69,-4.65 -21.3,-4.65Zm-259.6,0c-7.73,0 -14.87,1.55 -21.39,4.65c-6.53,3.099 -11.81,7.805 -15.86,14.117c-4.05,6.312 -6.14,14.146 -6.26,23.501l85.21,0c0.6,-9.355 -1,-17.189 -4.81,-23.501c-3.81,-6.312 -9,-11.018 -15.59,-14.117c-6.59,-3.1 -13.69,-4.65 -21.3,-4.65Zm-1619.6,32.293c13.052,0 22.509,-2.536 28.371,-7.608c5.861,-5.073 8.792,-12.23 8.792,-21.473c0,-9.693 -2.901,-17.019 -8.702,-21.979c-5.801,-4.959 -15.288,-7.439 -28.461,-7.439l-28.643,0l0,58.499l28.643,0Zm1451.19,-63.909l-33.9,21.979l0,-3.381l33.9,-22.656l0,4.058Zm-610.57,0l-33.9,21.979l0,-3.381l33.9,-22.656l0,4.058Zm-342.446,1.859c0,-1.352 0.453,-2.451 1.359,-3.297c0.907,-0.845 2.025,-1.268 3.354,-1.268c1.329,0 2.447,0.423 3.354,1.268c0.906,0.846 1.359,1.945 1.359,3.297c0,1.353 -0.453,2.452 -1.359,3.297c-0.907,0.846 -2.025,1.268 -3.354,1.268c-1.329,0 -2.447,-0.422 -3.354,-1.268c-0.906,-0.845 -1.359,-1.944 -1.359,-3.297Zm1301.08,0c0,-1.352 0.46,-2.451 1.36,-3.297c0.91,-0.845 2.03,-1.268 3.36,-1.268c1.33,0 2.44,0.423 3.35,1.268c0.91,0.846 1.36,1.945 1.36,3.297c0,1.353 -0.45,2.452 -1.36,3.297c-0.91,0.846 -2.02,1.268 -3.35,1.268c-1.33,0 -2.45,-0.422 -3.36,-1.268c-0.9,-0.845 -1.36,-1.944 -1.36,-3.297Z" style="fill:#fff;"/></svg>