<?xml version="1.0" encoding="UTF-8" standalone="no"?><!DOCTYPE svg PUBLIC "-//W3C//DTD SVG 1.1//EN" "http://www.w3.org/Graphics/SVG/1.1/DTD/svg11.dtd"><svg width="100%" height="100%" viewBox="0 0 447 448" version="1.1" xmlns="http://www.w3.org/2000/svg" xmlns:xlink="http://www.w3.org/1999/xlink" xml:space="preserve" style="fill-rule:evenodd;clip-rule:evenodd;stroke-linejoin:round;stroke-miterlimit:1.41421;"><g><path d="M328.531,416.102l-231.722,0l0,-108.137l54.07,-30.895l131.309,0l46.343,30.895l0,108.137Z" style="fill:#333;fill-rule:nonzero;stroke:#fff;stroke-width:3px;"/><path d="M81.359,416.102l262.621,0l0,30.898l-262.621,0l0,-30.898l0,0Z" style="fill:#333;fill-rule:nonzero;stroke:#fff;stroke-width:3px;"/><path d="M81.359,230.723l262.621,0l0,46.347l-262.621,0l0,-46.347l0,0Z" style="fill:#333;fill-rule:nonzero;stroke:#fff;stroke-width:3px;"/><path d="M228.117,153.484l-30.894,0l0,-92.691l2.007,0c2.664,6.772 7.675,11.338 13.412,11.338c5.737,0 10.748,-4.566 13.413,-11.338l2.062,0l0,92.691Z" style="fill:#333;stroke:#fff;stroke-width:3px;"/><path d="M374.875,37.621l0,54.067l-146.758,-0.001l0,30.899l177.656,0l0,-84.965l-30.898,0l0,0Z" style="fill:#fff;fill-rule:nonzero;stroke:#fff;stroke-width:3px;"/><path d="M421.223,29.898c0,17.063 -13.832,30.895 -30.899,30.895c-17.062,0 -30.894,-13.832 -30.894,-30.895c0,-17.066 13.832,-30.898 30.894,-30.898c17.067,0 30.899,13.832 30.899,30.898Z" style="fill:#fff;fill-rule:nonzero;stroke:#fff;stroke-width:3px;"/><rect x="197.223" y="284.793" width="15.449" height="15.449" style="fill:#fff;fill-rule:nonzero;stroke:#fff;stroke-width:3px;"/><rect x="181.773" y="300.242" width="15.45" height="15.449" style="fill:#333;fill-rule:nonzero;stroke:#fff;stroke-width:3px;"/><rect x="212.668" y="331.137" width="15.449" height="15.449" style="fill:#333;fill-rule:nonzero;stroke:#fff;stroke-width:3px;"/><rect x="119.98" y="377.48" width="15.45" height="15.45" style="fill:#fff;fill-rule:nonzero;stroke:#fff;stroke-width:3px;"/><rect x="135.43" y="392.93" width="15.449" height="15.449" style="fill:#fff;fill-rule:nonzero;stroke:#fff;stroke-width:3px;"/><rect x="150.879" y="362.035" width="15.445" height="15.445" style="fill:#333;fill-rule:nonzero;stroke:#fff;stroke-width:3px;"/><rect x="181.773" y="377.48" width="15.45" height="15.45" style="fill:#fff;fill-rule:nonzero;stroke:#fff;stroke-width:3px;"/><rect x="197.223" y="362.035" width="15.449" height="15.445" style="fill:#333;fill-rule:nonzero;stroke:#fff;stroke-width:3px;"/><rect x="212.668" y="377.48" width="15.449" height="15.45" style="fill:#fff;fill-rule:nonzero;stroke:#fff;stroke-width:3px;"/><path d="M243.566,392.93l15.45,0l0,15.449l-15.45,0l0,-15.449l0,0Z" style="fill:#333;fill-rule:nonzero;stroke:#fff;stroke-width:3px;"/><rect x="259.016" y="362.035" width="15.449" height="15.445" style="fill:#fff;fill-rule:nonzero;stroke:#fff;stroke-width:3px;"/><rect x="289.91" y="377.48" width="15.449" height="15.45" style="fill:#333;fill-rule:nonzero;stroke:#fff;stroke-width:3px;"/><path d="M305.359,362.035l-15.449,0l0,-34.488l-42.906,-28.602l8.574,-12.855l49.781,33.191l0,42.754Z" style="fill:#333;fill-rule:nonzero;stroke:#fff;stroke-width:3px;"/><rect x="197.223" y="315.691" width="15.449" height="15.446" style="fill:#fff;fill-rule:nonzero;stroke:#fff;stroke-width:3px;"/><rect x="164.41" y="153.322" width="96.436" height="77.921" style="fill:#333;stroke:#fff;stroke-width:3px;"/></g></svg>