<?xml version="1.0" encoding="UTF-8" standalone="no"?><!DOCTYPE svg PUBLIC "-//W3C//DTD SVG 1.1//EN" "http://www.w3.org/Graphics/SVG/1.1/DTD/svg11.dtd"><svg width="100%" height="100%" viewBox="0 0 512 512" version="1.1" xmlns="http://www.w3.org/2000/svg" xmlns:xlink="http://www.w3.org/1999/xlink" xml:space="preserve" style="fill-rule:evenodd;clip-rule:evenodd;stroke-linejoin:round;stroke-miterlimit:1.41421;"><path d="M37.635,11.213c37.395,-11.139 96.492,35.251 65.89,84.636c-30.602,49.385 -51.324,18.9 -51.324,18.9" style="fill:#fff;fill-rule:nonzero;stroke:#fff;stroke-width:3px;"/><path d="M72.2,109.619c0,0 16.205,-33.375 10.657,-57.284c-4.123,-17.768 -38.455,-48.364 -46.74,-40.146c-8.285,8.218 6.75,48.669 10.094,81.402" style="fill:#333;fill-rule:nonzero;stroke:#fff;stroke-width:3px;"/><path d="M366.978,244.138c-3.936,12.931 -72.102,5.017 -106.587,0.149c-11.791,-1.668 -19.639,-2.979 -19.639,-2.979l-40.632,-117.714l-5.535,-51.836c0,0 -14.233,-71.008 38.458,-70.793c7.366,0.03 13.126,0.837 17.578,2.353l0.009,0.009c27.379,9.376 5.385,45.949 5.178,96.751c-0.241,59.065 -7.923,96.089 44.128,112.513c52.05,16.433 72.319,14.199 67.042,31.547l0,0Z" style="fill:#333;fill-rule:nonzero;stroke:#fff;stroke-width:3px;"/><path d="M260.391,244.287c-11.791,-1.668 -19.639,-2.979 -19.639,-2.979l-40.632,-117.714l-5.535,-51.836c0,0 -14.233,-71.008 38.458,-70.793c7.366,0.03 13.126,0.837 17.578,2.353l0.009,0.009c-39,-7.612 -48.535,150.583 9.761,240.96Z" style="fill:#fff;fill-rule:nonzero;stroke:#fff;stroke-width:3px;"/><path d="M488.815,427.52c19.185,14.89 6.097,36.242 -94.215,43.75c-65.369,4.893 -173.21,5.562 -199.92,5.452c-11.46,-0.05 -69.39,-3.602 -101.09,-6.892c-46.206,-9.63 -44.12,-31.79 -61.76,-52.31c19.21,4.54 72.75,18.69 96.94,19.21c34.93,0.74 75.34,10.35 117.8,13.52c77.94,5.82 147.297,-11.03 190.397,-22.73l51.848,0Z" style="fill:#fff;fill-rule:nonzero;stroke:#fff;stroke-width:3px;"/><path d="M459.73,380.83l-9.29,-16.93l-168.39,-26.15c0,0 -23.07,-3.94 -55.09,-8.35l62.51,32.7l15.03,23.67c2.61,4.09 3.27,8.68 2.38,12.89c-1.42,6.87 -6.92,12.73 -14.73,13.86c-56.88,8.24 -106.32,-3.37 -133.4,-12.22c-12.02,-3.94 -16.02,-18.96 -7.55,-28.37c1.95,-2.17 4.02,-4.37 6.16,-6.57c15.06,-15.45 33.88,-31.04 44.19,-39.29c-71.03,-8.84 -163.59,-16.08 -165.25,5.89c-0.46,5.97 -1.67,11.74 -3.37,17.28c-1.97,6.39 -4.59,12.47 -7.46,18.21c-25.072,20.874 7.013,68.382 53.07,73.05c42.48,6.4 104.84,10.92 191.46,11.28c84.93,0.35 137.127,-5.421 167.911,-11.28c13.622,-2.593 56.787,-5.722 52.472,-18.68l-30.653,-40.99Zm-400.27,11.61c15.41,-15.29 107.05,18.96 107.01,29.38c-0.04,10.43 -138.47,17.98 -107.01,-29.38l0,0Zm156.21,50.39c-1.89,4.78 -46.08,-8.41 -27.81,-26.36c7.52,-5.16 29.7,21.58 27.81,26.36Zm84.73,3.62c-1.89,4.77 -46.07,-8.42 -27.81,-26.36c4.497,-3.086 14.237,5.237 20.937,13.449c4.503,5.52 7.633,10.99 6.873,12.911Zm91.24,-8.01c-2.29,5.78 -55.61,-10.15 -33.56,-31.81c9.07,-6.22 35.84,26.05 33.56,31.81Zm43.97,-9.49c-2.779,4.313 -46.08,-8.42 -27.82,-26.37c10.195,-6.837 31.713,20.328 27.82,26.37Z" style="fill:#333;fill-rule:nonzero;stroke:#fff;stroke-width:3px;"/><path d="M201.545,326.073c-10.307,8.247 -29.125,23.842 -44.181,39.287c-16.782,-3.264 -35.899,-5.919 -59.54,-7.513c-24.041,-1.619 -43.135,-3.638 -58.22,-5.727c-2.434,-0.337 -4.755,-1.286 -6.647,-2.853l-0.031,-0.026c1.703,-5.539 2.911,-11.307 3.37,-17.286c1.666,-21.968 94.222,-14.721 165.249,-5.882Z" style="fill:#333;fill-rule:nonzero;stroke:#fff;stroke-width:3px;"/><path d="M459.734,380.829c-0.611,0.259 -1.247,0.482 -1.892,0.671c-25.497,7.375 -88.91,23.032 -150.964,17.163c0.888,-4.21 0.227,-8.802 -2.377,-12.896l-15.027,-23.665l-62.511,-32.704c32.014,4.414 55.087,8.357 55.087,8.357l168.393,26.145l9.291,16.929Z" style="fill:#333;fill-rule:nonzero;stroke:#fff;stroke-width:3px;"/><path d="M470.61,346.08c-0.5,7.39 -5.57,13.67 -12.69,15.73c-26.95,7.8 -96.26,24.85 -161.56,15.96c-83.34,-11.34 -106.99,-33.45 -198.46,-39.61c-5.38,-0.36 -10.52,-0.74 -15.41,-1.15c-18.64,-1.51 -33.85,-3.27 -46.19,-5.05c-29.61,-18.85 -16.23,-75.14 -3.28,-133.96c8.06,-36.62 15.95,-74.23 13.19,-104.41l59.03,-9.08l64.76,-9.97c34.97,-5.38 66.66,21.2 67.51,56.57c0.44,18.21 1.16,36.5 2.33,49.54c2.56,28.62 97.55,46.91 165.24,65.32c10.02,2.72 19.44,5.45 27.88,8.21c8.43,2.76 15.88,5.56 21.95,8.43c18.47,8.72 17.3,59.74 15.7,83.47l0,0Z" style="fill:#333;fill-rule:nonzero;stroke:#fff;stroke-width:3px;"/><path d="M82.49,337.01c-18.64,-1.51 -33.85,-3.27 -46.19,-5.05c-29.61,-18.85 -16.23,-75.14 -3.28,-133.96c8.06,-36.62 15.95,-74.23 13.19,-104.41l59.03,-9.08c-22.57,22.56 -49.81,225.38 -22.75,252.5Z" style="fill:#333;fill-rule:nonzero;stroke:#fff;stroke-width:3px;"/><path d="M401.161,272.791c-1.712,11.732 -12.952,19.591 -24.56,17.176c-50.566,-10.523 -174.255,-39.35 -190.19,-72.465c-12.74,-26.481 -15.654,-65.715 -16.08,-90.895c-0.219,-12.96 -11.677,-22.836 -24.53,-21.161l-58.85,7.668c-8.731,1.138 -15.945,7.421 -18.183,15.937c-4.086,15.546 -13.732,42.064 -35.748,68.949c8.055,-36.622 15.948,-74.228 13.19,-104.408l146.423,-22.535c23.16,-3.564 44.14,14.163 44.461,37.593c0.335,24.447 1.085,53.495 2.744,72.005c2.245,25.04 75.278,42.18 138.849,58.405c15.017,3.833 24.712,18.394 22.474,33.731Z" style="fill:#333;fill-rule:nonzero;stroke:#fff;stroke-width:3px;"/><g><path d="M202.765,144.09c-3.889,-0.016 -7.421,-2.654 -8.406,-6.6c-1.165,-4.665 1.673,-9.391 6.338,-10.556l54.776,-13.674c4.672,-1.164 9.393,1.674 10.556,6.339c1.165,4.665 -1.673,9.391 -6.338,10.556l-54.776,13.674c-0.72,0.179 -1.441,0.264 -2.15,0.261l0,0Z" style="fill:#fff;fill-rule:nonzero;stroke:#fff;stroke-width:3px;"/><path d="M204.506,182.968c-3.341,-0.014 -6.519,-1.96 -7.946,-5.217c-1.928,-4.405 0.08,-9.539 4.484,-11.467l53.079,-23.236c4.41,-1.929 9.54,0.08 11.468,4.484c1.928,4.405 -0.08,9.539 -4.484,11.467l-53.079,23.236c-1.148,0.502 -2.345,0.738 -3.522,0.733l0,0Z" style="fill:#fff;fill-rule:nonzero;stroke:#fff;stroke-width:3px;"/><path d="M214.808,215.41c-3.064,-0.012 -6.029,-1.645 -7.607,-4.522c-2.312,-4.216 -0.767,-9.509 3.449,-11.82l48.75,-26.727c4.216,-2.311 9.509,-0.767 11.82,3.449c2.312,4.216 0.767,9.509 -3.449,11.82l-48.75,26.727c-1.339,0.733 -2.787,1.079 -4.213,1.073l0,0Z" style="fill:#fff;fill-rule:nonzero;stroke:#fff;stroke-width:3px;"/><path d="M249.976,236.619c-2.228,-0.009 -4.453,-0.868 -6.146,-2.575c-3.386,-3.414 -3.364,-8.927 0.05,-12.313l27.908,-27.681c3.415,-3.386 8.926,-3.364 12.313,0.05c3.386,3.414 3.364,8.927 -0.05,12.313l-27.908,27.681c-1.707,1.693 -3.938,2.534 -6.167,2.525l0,0Z" style="fill:#fff;fill-rule:nonzero;stroke:#fff;stroke-width:3px;"/><path d="M290.513,250.375c-0.848,-0.003 -1.709,-0.132 -2.561,-0.398c-4.591,-1.433 -7.15,-6.315 -5.717,-10.905l9.387,-30.073c1.432,-4.59 6.313,-7.152 10.905,-5.717c4.591,1.433 7.15,6.315 5.717,10.905l-9.387,30.073c-1.166,3.739 -4.622,6.13 -8.344,6.115Z" style="fill:#fff;fill-rule:nonzero;stroke:#fff;stroke-width:3px;"/><path d="M325.217,261.808c-0.521,-0.002 -1.049,-0.051 -1.579,-0.151c-4.725,-0.886 -7.839,-5.436 -6.953,-10.162l6.102,-32.547c0.886,-4.727 5.443,-7.837 10.162,-6.954c4.725,0.886 7.839,5.436 6.953,10.162l-6.102,32.547c-0.787,4.197 -4.461,7.122 -8.583,7.105l0,0Z" style="fill:#fff;fill-rule:nonzero;stroke:#fff;stroke-width:3px;"/><path d="M361.658,271.511c-0.536,-0.002 -1.08,-0.055 -1.628,-0.16c-4.72,-0.913 -7.808,-5.48 -6.895,-10.201l6.211,-32.113c0.914,-4.721 5.47,-7.807 10.202,-6.895c4.72,0.913 7.808,5.48 6.895,10.201l-6.211,32.113c-0.807,4.174 -4.473,7.072 -8.574,7.055l0,0Z" style="fill:#fff;fill-rule:nonzero;stroke:#fff;stroke-width:3px;"/></g><path d="M113.712,298.68l10.704,-6.343c10.189,-6.038 22.318,-7.903 33.851,-5.206l135.196,31.625c7.729,1.808 10.587,11.315 5.136,17.085c-12.051,12.755 -30.315,17.531 -47.059,12.285c-30.174,-9.454 -81.707,-23.848 -133.873,-30.391c-9.723,-1.22 -12.384,-14.06 -3.955,-19.055l0,0Z" style="fill:#333;fill-rule:nonzero;stroke:#fff;stroke-width:3px;"/></svg>