<svg id="Capa_1" enable-background="new 0 0 512 512" height="512" viewBox="0 0 512 512" width="512" xmlns="http://www.w3.org/2000/svg"><path d="m512 256c0 52.49-15.8 101.29-42.9 141.9-6.96 10.44-14.68 20.34-23.06 29.62-3.27 3.62-6.64 7.14-10.1 10.55-12.57 12.44-26.42 23.57-41.34 33.2-39.95 25.77-87.53 40.73-138.6 40.73-48.46 0-93.78-13.47-132.41-36.86-16.29-9.87-31.4-21.5-45.05-34.64-5.85-5.62-11.42-11.52-16.71-17.67-14.38-16.73-26.64-35.33-36.36-55.38-16.32-33.69-25.47-71.5-25.47-111.45 0-141.38 114.62-256 256-256s256 114.62 256 256z" fill="#75cef9"/><path d="m37.635 11.213c37.395-11.139 96.492 35.251 65.89 84.636s-51.324 18.9-51.324 18.9" fill="#3b5559"/><path d="m72.2 109.619s16.205-33.375 10.657-57.284c-4.123-17.768-38.455-48.364-46.74-40.146s6.75 48.669 10.094 81.402" fill="#dab72b"/><path d="m366.978 244.138c-3.936 12.931-72.102 5.017-106.587.149-11.791-1.668-19.639-2.979-19.639-2.979l-40.632-117.714-5.535-51.836s-14.233-71.008 38.458-70.793c7.366.03 13.126.837 17.578 2.353l.009.009c27.379 9.376 5.385 45.949 5.178 96.751-.241 59.065-7.923 96.089 44.128 112.513 52.05 16.433 72.319 14.199 67.042 31.547z" fill="#f1d333"/><path d="m260.391 244.287c-11.791-1.668-19.639-2.979-19.639-2.979l-40.632-117.714-5.535-51.836s-14.233-71.008 38.458-70.793c7.366.03 13.126.837 17.578 2.353l.009.009c-39-7.612-48.535 150.583 9.761 240.96z" fill="#dab72b"/><path d="m446.04 427.52c-15.11 16.74-32.41 31.47-51.44 43.75-65.27 6.07-172.7 8.11-199.41 8-11.46-.05-39.9-.84-71.6-4.13-23.27-14.09-44.12-31.79-61.76-52.31 19.21 4.54 42.75 13.38 66.94 13.9 34.93.74 75.34 10.35 117.8 13.52 77.94 5.82 156.37-11.03 199.47-22.73z" fill="#738b95"/><path d="m459.73 380.83-9.29-16.93-168.39-26.15s-23.07-3.94-55.09-8.35l62.51 32.7 15.03 23.67c2.61 4.09 3.27 8.68 2.38 12.89-1.42 6.87-6.92 12.73-14.73 13.86-56.88 8.24-106.32-3.37-133.4-12.22-12.02-3.94-16.02-18.96-7.55-28.37 1.95-2.17 4.02-4.37 6.16-6.57 15.06-15.45 33.88-31.04 44.19-39.29-71.03-8.84-163.59-16.08-165.25 5.89-.46 5.97-1.67 11.74-3.37 17.28-1.97 6.39-4.59 12.47-7.46 18.21 9.72 20.05 21.98 38.65 36.36 55.38 5.29 6.15 10.86 12.05 16.71 17.67 42.48 6.4 104.84 10.92 191.46 11.28 84.93.35 135.7-6.22 165.94-13.71 3.46-3.41 6.83-6.93 10.1-10.55 8.38-9.28 16.1-19.18 23.06-29.62zm-400.27 11.61c15.41-15.29 107.05 18.96 107.01 29.38-.04 10.43-138.47 17.98-107.01-29.38zm156.21 50.39c-1.89 4.78-46.08-8.41-27.81-26.36 7.52-5.16 29.7 21.58 27.81 26.36zm34.73 3.62c-1.89 4.77-46.07-8.42-27.81-26.36 7.52-5.16 29.7 21.58 27.81 26.36zm101.24-8.01c-2.29 5.78-55.61-10.15-33.56-31.81 9.07-6.22 35.84 26.05 33.56 31.81zm35.97.51c-1.89 4.77-46.08-8.42-27.82-26.37 7.52-5.16 29.7 21.59 27.82 26.37z" fill="#f6f9f9"/><path d="m201.545 326.073c-10.307 8.247-29.125 23.842-44.181 39.287-16.782-3.264-35.899-5.919-59.54-7.513-24.041-1.619-43.135-3.638-58.22-5.727-2.434-.337-4.755-1.286-6.647-2.853l-.031-.026c1.703-5.539 2.911-11.307 3.37-17.286 1.666-21.968 94.222-14.721 165.249-5.882z" fill="#dae4ea"/><path d="m459.734 380.829c-.611.259-1.247.482-1.892.671-25.497 7.375-88.91 23.032-150.964 17.163.888-4.21.227-8.802-2.377-12.896l-15.027-23.665-62.511-32.704c32.014 4.414 55.087 8.357 55.087 8.357l168.393 26.145z" fill="#dae4ea"/><path d="m470.61 346.08c-.5 7.39-5.57 13.67-12.69 15.73-26.95 7.8-96.26 24.85-161.56 15.96-83.34-11.34-106.99-33.45-198.46-39.61-5.38-.36-10.52-.74-15.41-1.15-18.64-1.51-33.85-3.27-46.19-5.05-29.61-18.85-16.23-75.14-3.28-133.96 8.06-36.62 15.95-74.23 13.19-104.41l59.03-9.08 64.76-9.97c34.97-5.38 66.66 21.2 67.51 56.57.44 18.21 1.16 36.5 2.33 49.54 2.56 28.62 97.55 46.91 165.24 65.32 10.02 2.72 19.44 5.45 27.88 8.21 8.43 2.76 15.88 5.56 21.95 8.43 18.47 8.72 17.3 59.74 15.7 83.47z" fill="#3b5559"/><path d="m82.49 337.01c-18.64-1.51-33.85-3.27-46.19-5.05-29.61-18.85-16.23-75.14-3.28-133.96 8.06-36.62 15.95-74.23 13.19-104.41l59.03-9.08c-22.57 22.56-49.81 225.38-22.75 252.5z" fill="#263b3d"/><path d="m401.161 272.791c-1.712 11.732-12.952 19.591-24.56 17.176-50.566-10.523-174.255-39.35-190.19-72.465-12.74-26.481-15.654-65.715-16.08-90.895-.219-12.96-11.677-22.836-24.53-21.161l-58.85 7.668c-8.731 1.138-15.945 7.421-18.183 15.937-4.086 15.546-13.732 42.064-35.748 68.949 8.055-36.622 15.948-74.228 13.19-104.408l146.423-22.535c23.16-3.564 44.14 14.163 44.461 37.593.335 24.447 1.085 53.495 2.744 72.005 2.245 25.04 75.278 42.18 138.849 58.405 15.017 3.833 24.712 18.394 22.474 33.731z" fill="#5f7a82"/><g fill="#f6f9f9"><path d="m202.765 144.09c-3.889-.016-7.421-2.654-8.406-6.6-1.165-4.665 1.673-9.391 6.338-10.556l54.776-13.674c4.672-1.164 9.393 1.674 10.556 6.339 1.165 4.665-1.673 9.391-6.338 10.556l-54.776 13.674c-.72.179-1.441.264-2.15.261z"/><path d="m204.506 182.968c-3.341-.014-6.519-1.96-7.946-5.217-1.928-4.405.08-9.539 4.484-11.467l53.079-23.236c4.41-1.929 9.54.08 11.468 4.484 1.928 4.405-.08 9.539-4.484 11.467l-53.079 23.236c-1.148.502-2.345.738-3.522.733z"/><path d="m214.808 215.41c-3.064-.012-6.029-1.645-7.607-4.522-2.312-4.216-.767-9.509 3.449-11.82l48.75-26.727c4.216-2.311 9.509-.767 11.82 3.449 2.312 4.216.767 9.509-3.449 11.82l-48.75 26.727c-1.339.733-2.787 1.079-4.213 1.073z"/><path d="m249.976 236.619c-2.228-.009-4.453-.868-6.146-2.575-3.386-3.414-3.364-8.927.05-12.313l27.908-27.681c3.415-3.386 8.926-3.364 12.313.05 3.386 3.414 3.364 8.927-.05 12.313l-27.908 27.681c-1.707 1.693-3.938 2.534-6.167 2.525z"/><path d="m290.513 250.375c-.848-.003-1.709-.132-2.561-.398-4.591-1.433-7.15-6.315-5.717-10.905l9.387-30.073c1.432-4.59 6.313-7.152 10.905-5.717 4.591 1.433 7.15 6.315 5.717 10.905l-9.387 30.073c-1.166 3.739-4.622 6.13-8.344 6.115z"/><path d="m325.217 261.808c-.521-.002-1.049-.051-1.579-.151-4.725-.886-7.839-5.436-6.953-10.162l6.102-32.547c.886-4.727 5.443-7.837 10.162-6.954 4.725.886 7.839 5.436 6.953 10.162l-6.102 32.547c-.787 4.197-4.461 7.122-8.583 7.105z"/><path d="m361.658 271.511c-.536-.002-1.08-.055-1.628-.16-4.72-.913-7.808-5.48-6.895-10.201l6.211-32.113c.914-4.721 5.47-7.807 10.202-6.895 4.72.913 7.808 5.48 6.895 10.201l-6.211 32.113c-.807 4.174-4.473 7.072-8.574 7.055z"/></g><path d="m113.712 298.68 10.704-6.343c10.189-6.038 22.318-7.903 33.851-5.206l135.196 31.625c7.729 1.808 10.587 11.315 5.136 17.085-12.051 12.755-30.315 17.531-47.059 12.285-30.174-9.454-81.707-23.848-133.873-30.391-9.723-1.22-12.384-14.06-3.955-19.055z" fill="#5f7a82"/></svg>